<svg xmlns="http://www.w3.org/2000/svg" width="220pt" height="452" viewBox="0 0 220 339"><g fill="#3b351d"><path d="M67.82 28.01c1.37-9.76 10.34-17.77 20.14-18.26 4.71.05 9.39.84 14.12.54 7.37-.24 15.7 2.6 19.24 9.54 7.17 14.36 5.27 31.13 11.18 45.88 2.95 7.6 6.75 14.82 10.06 22.26 3.36-15.72 4.17-31.89 7.93-47.53 1.71-6.98 4.51-14.08 9.98-18.98 5.4-4.96 13.5-6.36 20.43-4.27 4.93 1.51 8.91 5.33 11.2 9.88 2.98 5.86 3.72 12.51 4.43 18.94 4.19 34.74-4.69 69.25-4 103.98.07 5.51-.67 11.42 2.02 16.48 4.2 8.08 11.44 14.66 13.6 23.75.56 5.77-1.56 11.36-2.67 16.95-2.5 11.96-7.76 23.42-7.98 35.79-1.27 21.59 8.48 41.79 9.55 63.16-10.24 3.85-21.12 5.2-31.77 7.37-30.08 5.54-60.04 11.74-90.15 17.14-3.29-14.81-6.15-29.7-9.19-44.56-1.18-5.36-2.12-10.8-4.05-15.94-2.97-7.86-9.19-13.96-12.18-21.81-2.79-7.38-3.71-15.29-5.01-23.03-2.62-16.07-4.34-32.29-7.71-48.24-1.76-8.52-6.6-15.85-10.41-23.53-8.55-16.81-13.21-35.2-20.55-52.52-2.18-5.65-5.09-11.44-4.52-17.66 1.57-9.75 11.51-17.37 21.35-16.19 6.79.7 12.41 5.29 16.57 10.41 8.71 11.09 14.24 24.21 22.07 35.87 2.66-16.69 3.21-33.63 4.02-50.48.47-5.45-2.18-10.36-4.16-15.25-2.54-6.2-4.4-12.94-3.54-19.69M74.74 31c-.85 9.18 2.67 17.98 5.89 26.39 1.46 3.67 1.89 7.65 1.59 11.58-.74 10.69-1.64 21.37-2.3 32.07-.8 13.43-.31 26.9-1.39 40.32-8.64-13.43-14.39-28.47-22.94-41.95-3.29-5.11-6.22-10.45-9.46-15.59-2.36-3.54-5.24-7.47-9.72-8.25-5.85-1.03-12.48.84-16.22 5.62-2.67 3.35-2.2 7.97-1.28 11.87 1.61 6.3 4.49 12.17 6.86 18.21 6.73 16.38 11.1 33.76 19.62 49.38 3.03 5.52 5.91 11.17 7.85 17.18 5.57 16.79 6.44 34.59 8.97 51.98.88 5.76 1.61 11.65 3.98 17.04 3.01 6.95 8.33 12.57 11.5 19.44 8.22 18.24 8.04 38.9 15.22 57.44.74-4.51 1.08-9.15.07-13.65-3.08-14.49-6.7-28.87-9.26-43.46 3.54-.19 7.08-.41 10.62-.71-6.78-3.76-14.46-6.59-19.63-12.64-6.38-7.45-7.78-17.56-9.01-26.94-1.55-13.32-4.02-26.51-5.69-39.81 4.93-1.57 9.64-3.74 14.37-5.83-5.03-.47-10.06-.81-15.11-.96-3.61-7.92-7.64-15.64-11.65-23.35-6.3-12.15-9.92-25.41-14.93-38.1-3.58-9.97-8.67-19.66-9.77-30.33-1.16-5.45 5.01-8.07 9.33-8.84 5.49-1.2 8.94 4.21 11.62 8.05 12.11 19.19 21.91 39.7 32.62 59.68-1.87 2.41-3.7 4.85-5.42 7.38 4.46-.81 9.07-1.67 12.94-4.17 3.77-2.31 6.54-5.84 9.19-9.31-3.37.59-6.73 1.29-10.07 2.02-.06-17.31 1.34-34.57 2.1-51.85.48-11.42 2.55-22.68 3.46-34.06.75-8.12 1.25-16.4 4.01-24.15 1.1-2.97 2.48-5.99 4.91-8.11 4.04-3.51 11.14-2.86 14.11 1.74 2.49 3.91 3.12 8.61 3.97 13.08 1.5 9.2 2.73 18.45 3.32 27.76-8.61-1.36-17.87-2.48-25.88 1.83 8.28 1.33 16.68 1.99 24.82 4.05.66 9.79.93 19.63-.65 29.36-8.09-1.63-16.27-2.98-24.54-3 7.5 4.37 15.98 6.5 24.3 8.72.64 8.74.46 17.49-.37 26.21-3.76.18-7.5.49-11.23.96 3.52 2.24 7.15 4.99 11.53 4.99 5.54.27 10.69-2.11 15.71-4.13-3.04-1.34-6.12-2.58-9.21-3.76-.21-6.55-.27-13.11.12-19.66.24-11.03-.06-22.1.97-33.11 2.59 5.14 4.84 10.42 7.12 15.7 2.93 6.77 7.39 12.73 10.64 19.34 2.16 4.35 3.93 8.89 5.91 13.33-1.9 2.34-3.76 4.71-5.52 7.15 8.76-.34 17.59-1.35 25.72-4.84-4.93-1.34-9.93-2.37-14.99-3.05.4-23.83 2.94-47.56 5.55-71.22.99-7.36 1.57-15.12 5.34-21.68 4.09-6.97 15.35-7.19 20.04-.76 4.22 5.87 4.71 13.46 4.55 20.45-.82 21.3-1.32 42.63-3.14 63.87-1.33 14.7-.84 29.5-2.72 44.15-4.5-3.87-8.67-8.12-13.31-11.83-6.2-4.96-14.5-5.17-22.04-5.92-11.56-1.15-23.12 1.13-34.68.22-4.21-.19-8.49-.86-12.66-.02-3.44.95-5 4.6-6.3 7.59-3.3 8.59-3.89 19.26 1.75 27.02 5.52 7.05 14.49 9.94 22.84 12.09 4.99 1.38 11.1 2.18 13.86 7.19 1.84 3.31 4.61 7.57 2.16 11.28-2.72 4.76-5.63 9.43-7.64 14.55 5.35-3.37 9.84-8.49 16.08-10.18 7.64-.24 14.17 5.3 21.85 5.01 5.96.06 11.03-3.47 15.56-6.93-8.55.84-17.96 4.05-25.96-.68-6.48-3.33-9.59-10.23-12.35-16.58 7.34-3.93 15.04-7.97 19.99-14.93-9.32 2.9-17.88 10-28.19 8.15-13.36-2.36-26.71-7.59-36.45-17.34 9.62-1.63 20.4.4 28.97-5.18 5.74-3.72 5.64-11.23 5.97-17.28 8.73.19 17.7-.6 26.17 2.01 4.7 1.42 8.8 4.31 12.33 7.66 7.22 6.81 13.91 14.23 19.74 22.27 3.32 4.75 6.57 9.97 6.95 15.91.3 5.28-.82 10.5-1.91 15.63-1.72 7.43-3.63 14.83-5.96 22.09-2.23 6.99-7.36 12.42-11.97 17.92 3.53-.72 7.02-1.58 10.5-2.53 1.66 15.16 5.63 29.92 8.44 44.88.66 4.23 2.75 8.02 5.29 11.4.68-19.66-8.9-37.92-8.95-57.52-.38-10.35 3.57-20.1 5.84-30.02 1.88-8.18 4.04-16.49 3.63-24.95-.62-8.47-7.51-14.31-11.29-21.4-2.21-3.82-2.74-8.29-2.69-12.62.39-22.75 1.98-45.45 3.72-68.12 1.16-14.32 1.93-28.73.77-43.07-.54-6-2.01-12.27-6.05-16.94-4.46-5.29-12.32-6.62-18.72-4.66-4.85 1.51-7.69 6.17-9.51 10.61-3.98 9.85-4.2 20.63-5.97 30.98-2.37 14.38-2.94 28.97-5.19 43.36-8.95-11.56-14.68-25.15-20.49-38.44-6.2-14.08-4.42-30.06-9.57-44.41-1.58-4.75-5.92-8.41-10.94-8.89-5.9-.51-11.83-.44-17.73-.94-7.19-.67-13.57 5.52-14.23 12.49m85.57 39.1c3.11 1.92 6.26 4 9.9 4.72 4.78 1.06 9.66.14 14.33-.98-7.57-3.5-15.95-4.75-24.23-3.74M34.37 115.26c3.48-.89 7.08-1.76 10.08-3.83 3.14-2.13 5.2-5.4 7.24-8.51-6.83 2.36-13.12 6.36-17.32 12.34m125.04-9.1c7.3 2.94 15.19 3.92 23.02 3.54-2.99-1.88-6.05-3.89-9.6-4.49-4.48-.76-9.01.14-13.42.95M54.26 129.2c-4.05 2.35-6.91 6.17-9.65 9.87 7.11-2.77 13.75-6.82 18.89-12.51-3.15.57-6.43 1-9.24 2.64Z"/><path d="M79.13 29.2c1.84-5.95 8.45-8.08 14.11-7.8-4.42 9.53-6.44 19.86-8.92 30-3.53-6.76-6.71-14.44-5.19-22.2ZM99.2 148.12c9.98.44 19.9 1.48 29.81 2.76-1.37 4.43-1.82 10.42-6.86 12.3-8.75 3.13-18.22 1.08-27.22.42 1.26-5.2 2.72-10.36 4.27-15.48Z"/></g><g fill="#e2bb03"><path d="M74.74 31c.66-6.97 7.04-13.16 14.23-12.49 5.9.5 11.83.43 17.73.94 5.02.48 9.36 4.14 10.94 8.89 5.15 14.35 3.37 30.33 9.57 44.41 5.81 13.29 11.54 26.88 20.49 38.44 2.25-14.39 2.82-28.98 5.19-43.36 1.77-10.35 1.99-21.13 5.97-30.98 1.82-4.44 4.66-9.1 9.51-10.61 6.4-1.96 14.26-.63 18.72 4.66 4.04 4.67 5.51 10.94 6.05 16.94 1.16 14.34.39 28.75-.77 43.07-1.74 22.67-3.33 45.37-3.72 68.12-.05 4.33.48 8.8 2.69 12.62 3.78 7.09 10.67 12.93 11.29 21.4.41 8.46-1.75 16.77-3.63 24.95-2.27 9.92-6.22 19.67-5.84 30.02.05 19.6 9.63 37.86 8.95 57.52-2.54-3.38-4.63-7.17-5.29-11.4-2.81-14.96-6.78-29.72-8.44-44.88-3.48.95-6.97 1.81-10.5 2.53 4.61-5.5 9.74-10.93 11.97-17.92 2.33-7.26 4.24-14.66 5.96-22.09 1.09-5.13 2.21-10.35 1.91-15.63-.38-5.94-3.63-11.16-6.95-15.91-5.83-8.04-12.52-15.46-19.74-22.27-3.53-3.35-7.63-6.24-12.33-7.66-8.47-2.61-17.44-1.82-26.17-2.01-.33 6.05-.23 13.56-5.97 17.28-8.57 5.58-19.35 3.55-28.97 5.18 9.74 9.75 23.09 14.98 36.45 17.34 10.31 1.85 18.87-5.25 28.19-8.15-4.95 6.96-12.65 11-19.99 14.93 2.76 6.35 5.87 13.25 12.35 16.58 8 4.73 17.41 1.52 25.96.68-4.53 3.46-9.6 6.99-15.56 6.93-7.68.29-14.21-5.25-21.85-5.01-6.24 1.69-10.73 6.81-16.08 10.18 2.01-5.12 4.92-9.79 7.64-14.55 2.45-3.71-.32-7.97-2.16-11.28-2.76-5.01-8.87-5.81-13.86-7.19-8.35-2.15-17.32-5.04-22.84-12.09-5.64-7.76-5.05-18.43-1.75-27.02 1.3-2.99 2.86-6.64 6.3-7.59 4.17-.84 8.45-.17 12.66.02 11.56.91 23.12-1.37 34.68-.22 7.54.75 15.84.96 22.04 5.92 4.64 3.71 8.81 7.96 13.31 11.83 1.88-14.65 1.39-29.45 2.72-44.15 1.82-21.24 2.32-42.57 3.14-63.87.16-6.99-.33-14.58-4.55-20.45-4.69-6.43-15.95-6.21-20.04.76-3.77 6.56-4.35 14.32-5.34 21.68-2.61 23.66-5.15 47.39-5.55 71.22 5.06.68 10.06 1.71 14.99 3.05-8.13 3.49-16.96 4.5-25.72 4.84 1.76-2.44 3.62-4.81 5.52-7.15-1.98-4.44-3.75-8.98-5.91-13.33-3.25-6.61-7.71-12.57-10.64-19.34-2.28-5.28-4.53-10.56-7.12-15.7-1.03 11.01-.73 22.08-.97 33.11-.39 6.55-.33 13.11-.12 19.66 3.09 1.18 6.17 2.42 9.21 3.76-5.02 2.02-10.17 4.4-15.71 4.13-4.38 0-8.01-2.75-11.53-4.99 3.73-.47 7.47-.78 11.23-.96.83-8.72 1.01-17.47.37-26.21-8.32-2.22-16.8-4.35-24.3-8.72 8.27.02 16.45 1.37 24.54 3 1.58-9.73 1.31-19.57.65-29.36-8.14-2.06-16.54-2.72-24.82-4.05 8.01-4.31 17.27-3.19 25.88-1.83-.59-9.31-1.82-18.56-3.32-27.76-.85-4.47-1.48-9.17-3.97-13.08-2.97-4.6-10.07-5.25-14.11-1.74-2.43 2.12-3.81 5.14-4.91 8.11-2.76 7.75-3.26 16.03-4.01 24.15-.91 11.38-2.98 22.64-3.46 34.06-.76 17.28-2.16 34.54-2.1 51.85 3.34-.73 6.7-1.43 10.07-2.02-2.65 3.47-5.42 7-9.19 9.31-3.87 2.5-8.48 3.36-12.94 4.17 1.72-2.53 3.55-4.97 5.42-7.38-10.71-19.98-20.51-40.49-32.62-59.68-2.68-3.84-6.13-9.25-11.62-8.05-4.32.77-10.49 3.39-9.33 8.84 1.1 10.67 6.19 20.36 9.77 30.33 5.01 12.69 8.63 25.95 14.93 38.1 4.01 7.71 8.04 15.43 11.65 23.35 5.05.15 10.08.49 15.11.96-4.73 2.09-9.44 4.26-14.37 5.83 1.67 13.3 4.14 26.49 5.69 39.81 1.23 9.38 2.63 19.49 9.01 26.94 5.17 6.05 12.85 8.88 19.63 12.64-3.54.3-7.08.52-10.62.71 2.56 14.59 6.18 28.97 9.26 43.46 1.01 4.5.67 9.14-.07 13.65-7.18-18.54-7-39.2-15.22-57.44-3.17-6.87-8.49-12.49-11.5-19.44-2.37-5.39-3.1-11.28-3.98-17.04-2.53-17.39-3.4-35.19-8.97-51.98-1.94-6.01-4.82-11.66-7.85-17.18-8.52-15.62-12.89-33-19.62-49.38-2.37-6.04-5.25-11.91-6.86-18.21-.92-3.9-1.39-8.52 1.28-11.87 3.74-4.78 10.37-6.65 16.22-5.62 4.48.78 7.36 4.71 9.72 8.25 3.24 5.14 6.17 10.48 9.46 15.59 8.55 13.48 14.3 28.52 22.94 41.95 1.08-13.42.59-26.89 1.39-40.32.66-10.7 1.56-21.38 2.3-32.07.3-3.93-.13-7.91-1.59-11.58-3.22-8.41-6.74-17.21-5.89-26.39m4.39-1.8c-1.52 7.76 1.66 15.44 5.19 22.2 2.48-10.14 4.5-20.47 8.92-30-5.66-.28-12.27 1.85-14.11 7.8M99.2 148.12c-1.55 5.12-3.01 10.28-4.27 15.48 9 .66 18.47 2.71 27.22-.42 5.04-1.88 5.49-7.87 6.86-12.3-9.91-1.28-19.83-2.32-29.81-2.76Z"/><path d="M160.31 70.1c8.28-1.01 16.66.24 24.23 3.74-4.67 1.12-9.55 2.04-14.33.98-3.64-.72-6.79-2.8-9.9-4.72ZM34.37 115.26c4.2-5.98 10.49-9.98 17.32-12.34-2.04 3.11-4.1 6.38-7.24 8.51-3 2.07-6.6 2.94-10.08 3.83ZM159.41 106.16c4.41-.81 8.94-1.71 13.42-.95 3.55.6 6.61 2.61 9.6 4.49-7.83.38-15.72-.6-23.02-3.54ZM54.26 129.2c2.81-1.64 6.09-2.07 9.24-2.64-5.14 5.69-11.78 9.74-18.89 12.51 2.74-3.7 5.6-7.52 9.65-9.87Z"/></g></svg>