<?xml version="1.0" encoding="UTF-8" ?>
<!DOCTYPE svg PUBLIC "-//W3C//DTD SVG 1.1//EN" "http://www.w3.org/Graphics/SVG/1.1/DTD/svg11.dtd">
<svg width="220pt" height="339pt" viewBox="0 0 220 339" version="1.1" xmlns="http://www.w3.org/2000/svg">
<g id="#3b351dff">
<path fill="#3b351d" opacity="1.00" d=" M 67.82 28.01 C 69.19 18.25 78.16 10.24 87.96 9.75 C 92.67 9.80 97.35 10.59 102.08 10.29 C 109.45 10.05 117.78 12.89 121.32 19.83 C 128.49 34.19 126.59 50.96 132.50 65.71 C 135.45 73.31 139.25 80.53 142.56 87.97 C 145.92 72.25 146.73 56.08 150.49 40.44 C 152.20 33.46 155.00 26.36 160.47 21.46 C 165.87 16.50 173.97 15.10 180.90 17.19 C 185.83 18.70 189.81 22.52 192.10 27.07 C 195.08 32.93 195.82 39.58 196.53 46.01 C 200.72 80.75 191.84 115.26 192.53 149.99 C 192.60 155.50 191.86 161.41 194.55 166.47 C 198.75 174.55 205.99 181.13 208.15 190.22 C 208.71 195.99 206.59 201.58 205.48 207.17 C 202.98 219.13 197.72 230.59 197.50 242.96 C 196.23 264.55 205.98 284.75 207.05 306.12 C 196.81 309.97 185.93 311.32 175.28 313.49 C 145.20 319.03 115.24 325.23 85.13 330.63 C 81.84 315.82 78.98 300.93 75.94 286.07 C 74.76 280.71 73.82 275.27 71.89 270.13 C 68.92 262.27 62.70 256.17 59.71 248.32 C 56.92 240.94 56.00 233.03 54.70 225.29 C 52.08 209.22 50.36 193.00 46.99 177.05 C 45.23 168.53 40.39 161.20 36.58 153.52 C 28.03 136.71 23.37 118.32 16.03 101.00 C 13.85 95.35 10.94 89.56 11.51 83.34 C 13.08 73.59 23.02 65.97 32.86 67.15 C 39.65 67.85 45.27 72.44 49.43 77.56 C 58.14 88.65 63.67 101.77 71.50 113.43 C 74.16 96.74 74.71 79.80 75.52 62.95 C 75.99 57.50 73.34 52.59 71.36 47.70 C 68.82 41.50 66.96 34.76 67.82 28.01 M 74.74 31.00 C 73.89 40.18 77.41 48.98 80.63 57.39 C 82.09 61.06 82.52 65.04 82.22 68.97 C 81.48 79.66 80.58 90.34 79.92 101.04 C 79.12 114.47 79.61 127.94 78.53 141.36 C 69.89 127.93 64.14 112.89 55.59 99.41 C 52.30 94.30 49.37 88.96 46.13 83.82 C 43.77 80.28 40.89 76.35 36.41 75.57 C 30.56 74.54 23.93 76.41 20.19 81.19 C 17.52 84.54 17.99 89.16 18.91 93.06 C 20.52 99.36 23.40 105.23 25.77 111.27 C 32.50 127.65 36.87 145.03 45.39 160.65 C 48.42 166.17 51.30 171.82 53.24 177.83 C 58.81 194.62 59.68 212.42 62.21 229.81 C 63.09 235.57 63.82 241.46 66.19 246.85 C 69.20 253.80 74.52 259.42 77.69 266.29 C 85.91 284.53 85.73 305.19 92.91 323.73 C 93.65 319.22 93.99 314.58 92.98 310.08 C 89.90 295.59 86.28 281.21 83.72 266.62 C 87.26 266.43 90.80 266.21 94.34 265.91 C 87.56 262.15 79.88 259.32 74.71 253.27 C 68.33 245.82 66.93 235.71 65.70 226.33 C 64.15 213.01 61.68 199.82 60.01 186.52 C 64.94 184.95 69.65 182.78 74.38 180.69 C 69.35 180.22 64.32 179.88 59.27 179.73 C 55.66 171.81 51.63 164.09 47.62 156.38 C 41.32 144.23 37.70 130.97 32.69 118.28 C 29.11 108.31 24.02 98.62 22.92 87.95 C 21.76 82.50 27.93 79.88 32.25 79.11 C 37.74 77.91 41.19 83.32 43.87 87.16 C 55.98 106.35 65.78 126.86 76.49 146.84 C 74.62 149.25 72.79 151.69 71.07 154.22 C 75.53 153.41 80.14 152.55 84.01 150.05 C 87.78 147.74 90.55 144.21 93.20 140.74 C 89.83 141.33 86.47 142.03 83.13 142.76 C 83.07 125.45 84.47 108.19 85.23 90.91 C 85.71 79.49 87.78 68.23 88.69 56.85 C 89.44 48.73 89.94 40.45 92.70 32.70 C 93.80 29.73 95.18 26.71 97.61 24.59 C 101.65 21.08 108.75 21.73 111.72 26.33 C 114.21 30.24 114.84 34.94 115.69 39.41 C 117.19 48.61 118.42 57.86 119.01 67.17 C 110.40 65.81 101.14 64.69 93.13 69.00 C 101.41 70.33 109.81 70.99 117.95 73.05 C 118.61 82.84 118.88 92.68 117.30 102.41 C 109.21 100.78 101.03 99.43 92.76 99.41 C 100.26 103.78 108.74 105.91 117.06 108.13 C 117.70 116.87 117.52 125.62 116.69 134.34 C 112.93 134.52 109.19 134.83 105.46 135.30 C 108.98 137.54 112.61 140.29 116.99 140.29 C 122.53 140.56 127.68 138.18 132.70 136.16 C 129.66 134.82 126.58 133.58 123.49 132.40 C 123.28 125.85 123.22 119.29 123.61 112.74 C 123.85 101.71 123.55 90.64 124.58 79.63 C 127.17 84.77 129.42 90.05 131.70 95.33 C 134.63 102.10 139.09 108.06 142.34 114.67 C 144.50 119.02 146.27 123.56 148.25 128.00 C 146.35 130.34 144.49 132.71 142.73 135.15 C 151.49 134.81 160.32 133.80 168.45 130.31 C 163.52 128.97 158.52 127.94 153.46 127.26 C 153.86 103.43 156.40 79.70 159.01 56.04 C 160.00 48.68 160.58 40.92 164.35 34.36 C 168.44 27.39 179.70 27.17 184.39 33.60 C 188.61 39.47 189.10 47.06 188.94 54.05 C 188.12 75.35 187.62 96.68 185.80 117.92 C 184.47 132.62 184.96 147.42 183.08 162.07 C 178.58 158.20 174.41 153.95 169.77 150.24 C 163.57 145.28 155.27 145.07 147.73 144.32 C 136.17 143.17 124.61 145.45 113.05 144.54 C 108.84 144.35 104.56 143.68 100.39 144.52 C 96.95 145.47 95.39 149.12 94.09 152.11 C 90.79 160.70 90.20 171.37 95.84 179.13 C 101.36 186.18 110.33 189.07 118.68 191.22 C 123.67 192.60 129.78 193.40 132.54 198.41 C 134.38 201.72 137.15 205.98 134.70 209.69 C 131.98 214.45 129.07 219.12 127.06 224.24 C 132.41 220.87 136.90 215.75 143.14 214.06 C 150.78 213.82 157.31 219.36 164.99 219.07 C 170.95 219.13 176.02 215.60 180.55 212.14 C 172.00 212.98 162.59 216.19 154.59 211.46 C 148.11 208.13 145.00 201.23 142.24 194.88 C 149.58 190.95 157.28 186.91 162.23 179.95 C 152.91 182.85 144.35 189.95 134.04 188.10 C 120.68 185.74 107.33 180.51 97.59 170.76 C 107.21 169.13 117.99 171.16 126.56 165.58 C 132.30 161.86 132.20 154.35 132.53 148.30 C 141.26 148.49 150.23 147.70 158.70 150.31 C 163.40 151.73 167.50 154.62 171.03 157.97 C 178.25 164.78 184.94 172.20 190.77 180.24 C 194.09 184.99 197.34 190.21 197.72 196.15 C 198.02 201.43 196.90 206.65 195.81 211.78 C 194.09 219.21 192.18 226.61 189.85 233.87 C 187.62 240.86 182.49 246.29 177.88 251.79 C 181.41 251.07 184.90 250.21 188.38 249.26 C 190.04 264.42 194.01 279.18 196.82 294.14 C 197.48 298.37 199.57 302.16 202.11 305.54 C 202.79 285.88 193.21 267.62 193.16 248.02 C 192.78 237.67 196.73 227.92 199.00 218.00 C 200.88 209.82 203.04 201.51 202.63 193.05 C 202.01 184.58 195.12 178.74 191.34 171.65 C 189.13 167.83 188.60 163.36 188.65 159.03 C 189.04 136.28 190.63 113.58 192.37 90.91 C 193.53 76.59 194.30 62.18 193.14 47.84 C 192.60 41.84 191.13 35.57 187.09 30.90 C 182.63 25.61 174.77 24.28 168.37 26.24 C 163.52 27.75 160.68 32.41 158.86 36.85 C 154.88 46.70 154.66 57.48 152.89 67.83 C 150.52 82.21 149.95 96.80 147.70 111.19 C 138.75 99.63 133.02 86.04 127.21 72.75 C 121.01 58.67 122.79 42.69 117.64 28.34 C 116.06 23.59 111.72 19.93 106.70 19.45 C 100.80 18.94 94.87 19.01 88.97 18.51 C 81.78 17.84 75.40 24.03 74.74 31.00 M 160.31 70.10 C 163.42 72.02 166.57 74.10 170.21 74.82 C 174.99 75.88 179.87 74.96 184.54 73.84 C 176.97 70.34 168.59 69.09 160.31 70.10 M 34.37 115.26 C 37.85 114.37 41.45 113.50 44.45 111.43 C 47.59 109.30 49.65 106.03 51.69 102.92 C 44.86 105.28 38.57 109.28 34.37 115.26 M 159.41 106.16 C 166.71 109.10 174.60 110.08 182.43 109.70 C 179.44 107.82 176.38 105.81 172.83 105.21 C 168.35 104.45 163.82 105.35 159.41 106.16 M 54.26 129.20 C 50.21 131.55 47.35 135.37 44.61 139.07 C 51.72 136.30 58.36 132.25 63.50 126.56 C 60.35 127.13 57.07 127.56 54.26 129.20 Z" />
<path fill="#3b351d" opacity="1.00" d=" M 79.13 29.20 C 80.97 23.25 87.58 21.12 93.24 21.40 C 88.82 30.93 86.80 41.26 84.32 51.40 C 80.79 44.64 77.61 36.96 79.13 29.20 Z" />
<path fill="#3b351d" opacity="1.00" d=" M 99.20 148.12 C 109.18 148.56 119.10 149.60 129.01 150.88 C 127.64 155.31 127.19 161.30 122.15 163.18 C 113.40 166.31 103.93 164.26 94.93 163.60 C 96.19 158.40 97.65 153.24 99.20 148.12 Z" />
</g>
<g id="#e2bb03ff">
<path fill="#e2bb03" opacity="1.00" d=" M 74.74 31.00 C 75.40 24.03 81.78 17.84 88.97 18.51 C 94.87 19.01 100.80 18.94 106.70 19.45 C 111.72 19.93 116.06 23.59 117.64 28.34 C 122.79 42.69 121.01 58.67 127.21 72.75 C 133.02 86.04 138.75 99.63 147.70 111.19 C 149.95 96.80 150.52 82.21 152.89 67.83 C 154.66 57.48 154.88 46.70 158.86 36.85 C 160.68 32.41 163.52 27.75 168.37 26.24 C 174.77 24.28 182.63 25.61 187.09 30.90 C 191.13 35.57 192.60 41.84 193.14 47.84 C 194.30 62.18 193.53 76.59 192.37 90.91 C 190.63 113.58 189.04 136.28 188.65 159.03 C 188.60 163.36 189.13 167.83 191.34 171.65 C 195.12 178.74 202.01 184.58 202.63 193.05 C 203.04 201.51 200.88 209.82 199.00 218.00 C 196.73 227.92 192.78 237.67 193.16 248.02 C 193.21 267.62 202.79 285.88 202.11 305.54 C 199.57 302.16 197.48 298.37 196.82 294.14 C 194.01 279.18 190.04 264.42 188.38 249.26 C 184.90 250.21 181.41 251.07 177.88 251.79 C 182.49 246.29 187.62 240.86 189.85 233.87 C 192.18 226.61 194.09 219.21 195.81 211.78 C 196.90 206.65 198.02 201.43 197.72 196.15 C 197.34 190.21 194.09 184.99 190.77 180.24 C 184.94 172.20 178.25 164.78 171.03 157.97 C 167.50 154.62 163.40 151.73 158.70 150.31 C 150.23 147.70 141.26 148.49 132.53 148.30 C 132.20 154.35 132.30 161.86 126.56 165.58 C 117.99 171.16 107.21 169.13 97.59 170.76 C 107.33 180.51 120.68 185.74 134.04 188.10 C 144.35 189.95 152.91 182.85 162.23 179.95 C 157.28 186.91 149.58 190.95 142.24 194.88 C 145.00 201.23 148.11 208.13 154.59 211.46 C 162.59 216.19 172.00 212.98 180.55 212.14 C 176.02 215.60 170.95 219.13 164.99 219.07 C 157.31 219.36 150.78 213.82 143.14 214.06 C 136.90 215.75 132.41 220.87 127.06 224.24 C 129.07 219.12 131.98 214.45 134.70 209.69 C 137.15 205.98 134.38 201.72 132.54 198.41 C 129.78 193.40 123.67 192.60 118.68 191.22 C 110.33 189.07 101.36 186.18 95.84 179.13 C 90.20 171.37 90.79 160.70 94.09 152.11 C 95.39 149.12 96.95 145.47 100.39 144.52 C 104.56 143.68 108.84 144.35 113.05 144.54 C 124.61 145.45 136.17 143.17 147.73 144.32 C 155.27 145.07 163.57 145.28 169.77 150.24 C 174.41 153.95 178.58 158.20 183.08 162.07 C 184.96 147.42 184.47 132.62 185.80 117.92 C 187.62 96.68 188.12 75.35 188.94 54.05 C 189.10 47.06 188.61 39.47 184.39 33.60 C 179.70 27.17 168.44 27.39 164.35 34.36 C 160.58 40.92 160.00 48.68 159.01 56.04 C 156.40 79.70 153.86 103.43 153.46 127.26 C 158.52 127.94 163.52 128.97 168.45 130.31 C 160.32 133.80 151.49 134.81 142.73 135.15 C 144.49 132.71 146.35 130.34 148.25 128.00 C 146.27 123.56 144.50 119.02 142.34 114.67 C 139.09 108.06 134.63 102.10 131.70 95.33 C 129.42 90.05 127.17 84.77 124.58 79.63 C 123.55 90.64 123.85 101.71 123.61 112.74 C 123.22 119.29 123.28 125.85 123.49 132.40 C 126.58 133.58 129.66 134.82 132.70 136.16 C 127.68 138.18 122.53 140.56 116.99 140.29 C 112.61 140.29 108.98 137.54 105.46 135.30 C 109.19 134.83 112.93 134.52 116.69 134.34 C 117.52 125.62 117.70 116.87 117.06 108.13 C 108.74 105.91 100.26 103.78 92.76 99.41 C 101.03 99.43 109.21 100.78 117.30 102.41 C 118.88 92.68 118.61 82.84 117.95 73.05 C 109.81 70.99 101.41 70.33 93.13 69.00 C 101.14 64.69 110.40 65.81 119.01 67.17 C 118.42 57.86 117.19 48.61 115.69 39.41 C 114.84 34.94 114.21 30.24 111.72 26.33 C 108.75 21.73 101.65 21.08 97.61 24.59 C 95.18 26.71 93.80 29.73 92.70 32.70 C 89.94 40.45 89.44 48.73 88.69 56.85 C 87.78 68.23 85.71 79.49 85.23 90.91 C 84.47 108.19 83.07 125.45 83.13 142.76 C 86.47 142.03 89.83 141.33 93.20 140.74 C 90.55 144.21 87.78 147.74 84.01 150.05 C 80.14 152.55 75.53 153.41 71.07 154.22 C 72.79 151.69 74.62 149.25 76.49 146.84 C 65.78 126.86 55.98 106.35 43.87 87.16 C 41.19 83.32 37.74 77.91 32.25 79.11 C 27.93 79.88 21.76 82.50 22.92 87.95 C 24.02 98.62 29.11 108.31 32.69 118.28 C 37.70 130.97 41.32 144.23 47.62 156.38 C 51.63 164.09 55.66 171.81 59.27 179.73 C 64.32 179.88 69.35 180.22 74.38 180.69 C 69.65 182.78 64.94 184.95 60.01 186.52 C 61.68 199.82 64.15 213.01 65.70 226.33 C 66.93 235.71 68.33 245.82 74.71 253.27 C 79.88 259.32 87.56 262.15 94.34 265.91 C 90.80 266.21 87.26 266.43 83.72 266.62 C 86.28 281.21 89.90 295.59 92.98 310.08 C 93.99 314.58 93.65 319.22 92.91 323.73 C 85.73 305.19 85.91 284.53 77.69 266.29 C 74.52 259.42 69.20 253.80 66.19 246.85 C 63.82 241.46 63.09 235.57 62.21 229.81 C 59.68 212.42 58.81 194.62 53.24 177.83 C 51.30 171.82 48.42 166.17 45.39 160.65 C 36.87 145.03 32.50 127.65 25.77 111.27 C 23.40 105.23 20.52 99.36 18.91 93.06 C 17.99 89.16 17.52 84.54 20.19 81.19 C 23.93 76.41 30.56 74.54 36.41 75.57 C 40.89 76.35 43.77 80.28 46.13 83.82 C 49.37 88.96 52.30 94.30 55.59 99.41 C 64.14 112.89 69.89 127.93 78.53 141.36 C 79.61 127.94 79.12 114.47 79.92 101.04 C 80.58 90.34 81.48 79.66 82.22 68.97 C 82.52 65.04 82.09 61.06 80.63 57.39 C 77.41 48.98 73.89 40.18 74.74 31.00 M 79.13 29.20 C 77.61 36.96 80.79 44.64 84.32 51.40 C 86.80 41.26 88.82 30.93 93.24 21.40 C 87.58 21.12 80.97 23.25 79.13 29.20 M 99.20 148.12 C 97.65 153.24 96.19 158.40 94.93 163.60 C 103.93 164.26 113.40 166.31 122.15 163.18 C 127.19 161.30 127.64 155.31 129.01 150.88 C 119.10 149.60 109.18 148.56 99.20 148.12 Z" />
<path fill="#e2bb03" opacity="1.00" d=" M 160.31 70.10 C 168.59 69.09 176.97 70.34 184.54 73.84 C 179.87 74.96 174.99 75.88 170.21 74.82 C 166.57 74.10 163.42 72.02 160.31 70.10 Z" />
<path fill="#e2bb03" opacity="1.00" d=" M 34.37 115.26 C 38.57 109.28 44.86 105.28 51.69 102.92 C 49.65 106.03 47.59 109.30 44.45 111.43 C 41.45 113.50 37.85 114.37 34.37 115.26 Z" />
<path fill="#e2bb03" opacity="1.00" d=" M 159.41 106.16 C 163.82 105.35 168.35 104.45 172.83 105.21 C 176.38 105.81 179.44 107.82 182.43 109.70 C 174.60 110.08 166.71 109.10 159.41 106.16 Z" />
<path fill="#e2bb03" opacity="1.00" d=" M 54.26 129.20 C 57.07 127.56 60.35 127.13 63.50 126.56 C 58.36 132.25 51.72 136.30 44.61 139.07 C 47.35 135.37 50.21 131.55 54.26 129.20 Z" />
</g>
</svg>
